<svg xmlns="http://www.w3.org/2000/svg" viewBox="0 0 1200 800" role="img" aria-labelledby="title desc">
  <title id="title">Kuro-7 Phantom concept guitar</title>
  <desc id="desc">A black seven string electric guitar concept with cold metal highlights.</desc>
  <defs>
    <linearGradient id="bg" x1="0" x2="1" y1="0" y2="1">
      <stop offset="0" stop-color="#040406"/>
      <stop offset=".55" stop-color="#111827"/>
      <stop offset="1" stop-color="#020202"/>
    </linearGradient>
    <linearGradient id="body" x1="0" x2="1">
      <stop offset="0" stop-color="#050505"/>
      <stop offset=".5" stop-color="#26313d"/>
      <stop offset="1" stop-color="#050505"/>
    </linearGradient>
  </defs>
  <rect width="1200" height="800" fill="url(#bg)"/>
  <path d="M0 585 C220 500 320 670 520 570 C736 462 884 520 1200 438 L1200 800 L0 800Z" fill="#ffffff" opacity=".055"/>
  <g transform="translate(60 205) rotate(-9 560 220)">
    <path d="M186 330 C105 273 118 184 207 152 C264 132 315 151 350 188 C402 108 540 117 604 196 C650 253 628 332 564 364 C504 394 440 376 402 330 C351 397 257 381 186 330Z" fill="url(#body)" stroke="#9ca3af" stroke-opacity=".55" stroke-width="3"/>
    <path d="M363 207 C425 168 534 179 577 237 C607 278 594 324 549 346 C493 374 437 347 407 306 C371 350 303 349 256 315 C211 283 211 225 260 199 C299 178 332 187 363 207Z" fill="#020202" opacity=".5"/>
    <rect x="540" y="239" width="455" height="24" rx="10" fill="#c8cdd2" stroke="#111" stroke-width="2"/>
    <path d="M965 222 L1132 154 L1172 190 L1012 287 Z" fill="#070707" stroke="#cbd5e1" stroke-opacity=".55" stroke-width="3"/>
    <g fill="#d7dde5">
      <circle cx="1124" cy="176" r="7"/><circle cx="1152" cy="195" r="7"/><circle cx="1084" cy="211" r="7"/>
      <circle cx="1114" cy="230" r="7"/><circle cx="1047" cy="244" r="7"/><circle cx="1075" cy="262" r="7"/>
      <circle cx="1017" cy="270" r="7"/>
    </g>
    <rect x="310" y="250" width="88" height="34" rx="4" fill="#0b0b0b" stroke="#d1d5db" stroke-opacity=".35"/>
    <rect x="449" y="250" width="88" height="34" rx="4" fill="#0b0b0b" stroke="#d1d5db" stroke-opacity=".35"/>
    <rect x="390" y="298" width="98" height="18" rx="5" fill="#aeb8c2"/>
    <circle cx="259" cy="275" r="12" fill="#cbd5e1"/>
    <circle cx="282" cy="323" r="10" fill="#cbd5e1"/>
    <g stroke="#e7edf4" stroke-width="2" opacity=".82">
      <line x1="214" y1="246" x2="1128" y2="171"/>
      <line x1="215" y1="256" x2="1139" y2="185"/>
      <line x1="216" y1="266" x2="1150" y2="199"/>
      <line x1="217" y1="276" x2="1088" y2="214"/>
      <line x1="218" y1="286" x2="1118" y2="231"/>
      <line x1="219" y1="296" x2="1049" y2="245"/>
      <line x1="220" y1="306" x2="1017" y2="271"/>
    </g>
  </g>
  <text x="72" y="674" fill="#fff" font-family="Arial, sans-serif" font-size="58" font-weight="900" letter-spacing="4">KURO-7 PHANTOM</text>
  <text x="78" y="724" fill="#aeb8c2" font-family="Arial, sans-serif" font-size="20" letter-spacing="8">EXTENDED RANGE SERIES</text>
</svg>
